<svg version="1.1" xmlns="http://www.w3.org/2000/svg" xmlns:xlink="http://www.w3.org/1999/xlink" width="434.61297" height="248.69275" viewBox="0,0,434.61297,248.69275"><g transform="translate(138.97656,-95.30907)"><g data-paper-data="{&quot;isPaintingLayer&quot;:true}" fill-rule="nonzero" stroke="none" stroke-linecap="butt" stroke-linejoin="miter" stroke-miterlimit="10" stroke-dasharray="" stroke-dashoffset="0" style="mix-blend-mode: normal"><path d="M195.77344,291.8789c-5.75,0 -5.75,-5.75 -5.75,-5.75l0.02798,-3.56659c1.85665,-9.31376 6.1171,-17.37777 9.28116,-26.29341c2.98193,-8.40245 5.31602,-17.29966 7.94085,-25.81706c1.19795,-3.88725 4.33602,-15.10979 5.08973,-17.27012c0.74689,-2.14077 2.12192,-4.03854 2.77769,-6.20895c0.39113,-1.29452 -0.47305,-2.94913 0.32027,-4.0443c2.74417,-3.78831 5.70664,-7.82439 9.84999,-9.99567c2.68179,-1.40536 5.83322,-1.35372 8.94031,-1.39771c0.36979,-1.47762 1.34565,-3.34409 3.88994,-3.95772c2.97017,-2.64283 6.67956,-0.32446 6.67956,-0.32446c3.05183,1.98401 6.73326,3.23492 9.1555,5.95204c4.1407,4.64478 6.29417,10.75453 8.95367,16.38005c1.50013,3.17315 2.19002,6.79297 4.25324,9.63241c2.09783,2.88708 5.46182,4.61211 7.95365,7.1669c0.90831,0.93126 1.36325,2.22562 2.18833,3.23135c2.62022,3.19389 6.04448,5.78702 8.13391,9.35084c1.59763,2.72499 1.56558,6.13367 2.67783,9.09017c0.80581,2.14196 2.33445,3.97628 3.055,6.14841c0.76372,2.3023 1.19411,4.69742 1.65788,7.08327c1.22908,0.81664 4.12882,3.28733 2.06647,7.41204c-2.57148,5.14295 -7.71444,2.57148 -7.71444,2.57148l-5.0416,-4.89561c-0.60185,-2.7745 -0.9034,-5.63164 -1.80554,-8.32352c-0.69387,-2.07045 -2.19185,-3.80196 -2.945,-5.85159c-0.91803,-2.4983 -0.68838,-5.42758 -2.0418,-7.71941c-1.79805,-3.04474 -4.86508,-5.13796 -7.14646,-7.83957c-0.71157,-0.84265 -1.04388,-1.97689 -1.81167,-2.76865c-2.69689,-2.78107 -6.2687,-4.74839 -8.52888,-7.89467c-3.45854,-4.81447 -5.04543,-10.73191 -7.76934,-15.99698c-1.4024,-2.7107 -2.1952,-5.82863 -4.0027,-8.26138c1.07552,16.13287 2.15105,32.26574 3.22657,48.39861c0.63367,9.50508 0.97656,19.23119 2.09076,28.69741c0.88514,7.52015 2.71506,14.88913 4.01277,22.33106c0.49764,2.85381 0.88864,5.73309 1.07325,8.62408c0.22431,3.51279 -0.77214,7.11584 -0.04447,10.55976c0.50167,2.37428 1.56492,4.61262 2,7c0.22175,1.21679 -0.30769,2.50088 -0.04817,3.71017c0.30069,1.40112 1.12833,2.63458 1.6925,3.95187l-0.27288,-0.93037c0,0 4.06586,4.06587 0,8.13173c-4.06587,4.06586 -8.13172,0 -8.13172,0l-2.27288,-2.93036c-0.76917,-2.01605 -1.8281,-3.94427 -2.3075,-6.04813c-0.31771,-1.39429 0.20709,-2.88277 -0.04818,-4.28983c-0.43318,-2.38773 -1.54617,-4.61611 -2,-7c-1.15967,-6.09152 0.14553,-12.56766 -0.97122,-18.81617c-1.35385,-7.57515 -3.17648,-15.08895 -4.07718,-22.74838c-1.14432,-9.73104 -1.51808,-19.70499 -2.1696,-29.47786c-1.06968,-16.04522 -2.13936,-32.09045 -3.20905,-48.13568c-3.31919,0.09486 -6.20151,0.90091 -8.56623,4.58097c-0.3571,0.55574 0.50877,1.32259 0.32027,1.9557c-0.80198,2.69351 -2.30844,5.13342 -3.22231,7.79106c-0.45539,1.32434 -3.92975,13.54775 -4.91027,16.72988c-2.66134,8.63702 -5.03724,17.66111 -8.05915,26.18293c-2.81839,7.94789 -7.05136,15.41118 -8.71884,23.70659l0.02799,2.4334c0,0 0,5.75 -5.75,5.75z" fill="#9966ff" stroke-width="0.5"/><path d="M272.77344,145.62891c0,26.23353 -17.01318,47.5 -38,47.5c-20.98682,0 -38,-21.26647 -38,-47.5c0,-26.23352 17.01318,-47.5 38,-47.5c20.98682,0 38,21.26648 38,47.5z" fill="#66ff6f" stroke-width="0"/><path d="M213.37886,130.70723c-5.57832,-1.39458 -4.18374,-6.9729 -4.18374,-6.9729l0.8714,-3.30797c0.13154,-1.49929 -0.17688,-3.10555 0.39461,-4.49788c0.56717,-1.38181 1.96562,-2.2529 2.86559,-3.44501c1.94801,-2.58035 2.43877,-4.62806 5.6137,-6.35821c1.65719,-0.90307 3.62563,-1.04978 5.43844,-1.57467c0,0 5.57832,-1.39458 6.9729,4.18374c1.39458,5.57832 -4.18374,6.9729 -4.18374,6.9729c-0.85385,0.14178 -1.7477,0.13072 -2.56156,0.42533c-1.36466,0.494 -1.42648,2.55317 -2.3863,3.64179c-0.2784,0.31576 -0.99195,0.15887 -1.13441,0.55499c-0.17519,0.48715 0.26307,1.00142 0.39461,1.50212l-1.1286,4.69203c0,0 -1.39458,5.57832 -6.9729,4.18374z" fill="#66ff6f" stroke-width="0.5"/><path d="M-102.97656,121.12891c0,-3.17564 2.57436,-5.75 5.75,-5.75c3.17564,0 5.75,2.57436 5.75,5.75c0,3.17564 -2.57436,5.75 -5.75,5.75c-3.17564,0 -5.75,-2.57436 -5.75,-5.75z" fill="#66ff6f" stroke-width="0.5"/><path d="M216.77344,156.87891c-5.75,0 -5.75,-5.75 -5.75,-5.75l0.17168,-2.39458c1.38078,-5.35822 3.56279,-11.95932 7.16375,-16.28972c0.98206,-1.18099 2.75702,-1.50591 3.74993,-2.67779c0.59709,-0.70472 0.23653,-1.90925 0.7734,-2.66087c1.1736,-1.64304 3.10627,-2.65932 4.2266,-4.33913c1.56713,-2.34974 2.28573,-5.18174 3.73859,-7.6038c1.55213,-2.58755 3.49806,-4.91749 5.24709,-7.37623c0,0 3.34212,-4.67897 8.02109,-1.33685c4.67897,3.34212 1.33685,8.02109 1.33685,8.02109c-1.5843,2.20792 -3.35449,4.29367 -4.75291,6.62377c-1.61509,2.69112 -2.52093,5.78442 -4.26141,8.3962c-0.97183,1.45833 -2.7548,2.23482 -3.7734,3.66087c-0.68921,0.9649 -0.47355,2.42319 -1.2266,3.33913c-1.14196,1.38898 -3.05517,1.9785 -4.25007,3.32221c-0.6988,0.78584 -0.81354,1.94059 -1.27162,2.88718c-1.38172,2.85524 -2.82558,5.73841 -3.56464,8.8231l0.17168,-0.39458c0,0 0,5.75 -5.75,5.75z" fill="#59de62" stroke-width="0.5"/><path d="M-138.97656,246.12891c0,-3.17564 2.57436,-5.75 5.75,-5.75c3.17564,0 5.75,2.57436 5.75,5.75c0,3.17564 -2.57436,5.75 -5.75,5.75c-3.17564,0 -5.75,-2.57436 -5.75,-5.75z" fill="#dedede" stroke-width="0.5"/><path d="M257.16767,96.4109l6.81855,7.26848c0.59502,2.78407 1.06966,4.82127 1.46116,6.55497c0.37579,0.84449 0.51546,1.62135 0.51671,2.36621c0.50592,2.44458 0.8487,4.669 1.17629,8.43527c0.07931,0.91177 0.07946,1.83788 0.06615,2.76593c0.48541,0.62795 0.99279,1.24285 1.51027,1.85162c3.29619,-1.41664 6.1225,1.40966 6.1225,1.40966l3.24644,3.86543c0.06366,2.62223 1.44085,5.56062 0.19097,7.86669c-0.13037,0.24054 -0.27254,0.47151 -0.42518,0.69401c0.04813,0.34837 0.10239,0.6949 0.17352,1.03554c1.78264,1.93621 3.28067,3.97061 3.3846,6.46601c0.035,0.84041 -0.12131,1.62885 -0.41296,2.38053c0.3073,1.23482 0.50841,2.48475 0.52674,3.75766c0.0158,1.09751 0.06613,3.18157 -0.05368,5.25874c2.82214,5.80585 5.89103,12.174 5.90627,12.44763c0.02448,0.43938 0.00012,0.87006 -0.0641,1.29363h0.21151c0,0 0,3 0,3c0,3.17564 -2.57436,5.75 -5.75,5.75c-2.29542,0 -4.27668,-1.34503 -5.19867,-3.28994l-3.80133,-7.60267c-0.55981,-1.12007 -1.10418,-2.25653 -1.63807,-3.40496c-9.75781,-0.7944 -16.11958,-13.75945 -19.43988,-21.73798c-1.57656,-3.7884 -3.16367,-7.59867 -4.2241,-11.56263c-0.61586,-2.30215 -0.1377,-4.84586 -0.73741,-7.13089c-0.25643,-0.23959 -0.5137,-0.47801 -0.77163,-0.71533c-1.19849,-1.10275 -2.60437,-1.96817 -3.98334,-2.86014c-0.91897,1.95278 -2.90441,3.30455 -5.20557,3.30455h-4c-3.20045,0.93178 -6.66667,0 -10,0c-1.95168,0 -3.90086,-0.00626 -5.84957,-0.02159c-3.41625,0.11093 -6.82117,0.3748 -10.20514,0.94336c-1.92414,0.32328 -3.82609,0.85375 -5.77442,0.95776c-0.40904,0.02184 -0.93239,-0.97529 -1.07687,-0.59199c-0.36308,0.96324 0.31585,2.07139 0.1371,3.08515c-0.68072,3.86063 -0.81758,8.00758 -2.69938,11.44658c-0.04259,0.07783 -0.0863,0.15481 -0.13108,0.23096l0.05429,0.0181l-0.95807,2.87421c-0.7226,2.34959 -2.91028,4.05748 -5.49686,4.05748c-3.17564,0 -5.75,-2.57436 -5.75,-5.75v-3h0.68897l0.12709,-0.38127l-0.56934,-1.28499c0.37851,-0.56776 0.85094,-1.08983 1.25731,-1.64404c0.16148,-0.76102 0.38247,-1.72745 0.64363,-2.81528c-0.07186,-0.292 -0.14087,-0.58503 -0.14767,-0.87443c-0.04542,-1.93207 -0.26203,-3.89121 0.05558,-5.79753c0.48,-2.88105 3.30785,-12.29886 5.29593,-14.90595c1.12724,-1.47822 3.01682,-2.1774 4.59086,-3.16644c3.57611,-2.24702 6.95335,-4.91691 10.85339,-6.53781c3.27316,-1.36036 7.01305,-1.06079 10.48305,-1.78417c1.55096,-1.08768 2.80466,-2.84756 4.65288,-3.26304c3.68165,-0.82764 8.81118,-0.52413 13.83547,0.57602c0.12702,-0.22271 0.26568,-0.43594 0.41775,-0.63777c0.84941,-1.2144 2.32426,-2.46193 4.75294,-2.26479c1.67117,-0.13692 3.44304,0.1097 5.01258,0.46916c1.86666,0.42752 3.11185,2.29753 4.33175,3.77369c0.25068,0.30334 1.281,2.01213 2.44045,3.96365c1.08082,-2.39755 2.4271,-4.72158 3.4216,-7.14304z" fill="#dedede" stroke-width="0.5"/></g></g></svg>